<svg width="20" height="20" viewBox="0 0 20 20" fill="none" xmlns="http://www.w3.org/2000/svg">
<path d="M10.0059 1.80113C12.6783 1.80113 12.9947 1.81285 14.0457 1.85974C15.0225 1.90272 15.5499 2.06681 15.9015 2.20356C16.3665 2.38328 16.7025 2.60207 17.0502 2.9498C17.4018 3.30143 17.6167 3.63352 17.7964 4.09846C17.9332 4.45009 18.0973 4.98144 18.1403 5.95429C18.1871 7.00918 18.1989 7.32565 18.1989 9.99414C18.1989 12.6665 18.1871 12.983 18.1403 14.034C18.0973 15.0107 17.9332 15.5382 17.7964 15.8898C17.6167 16.3548 17.3979 16.6908 17.0502 17.0385C16.6986 17.3901 16.3665 17.605 15.9015 17.7847C15.5499 17.9215 15.0186 18.0856 14.0457 18.1285C12.9908 18.1754 12.6744 18.1871 10.0059 18.1871C7.33346 18.1871 7.017 18.1754 5.96601 18.1285C4.98926 18.0856 4.46181 17.9215 4.11018 17.7847C3.64524 17.605 3.30924 17.3862 2.96152 17.0385C2.60988 16.6869 2.395 16.3548 2.21528 15.8898C2.07853 15.5382 1.91444 15.0068 1.87146 14.034C1.82457 12.9791 1.81285 12.6626 1.81285 9.99414C1.81285 7.32174 1.82457 7.00527 1.87146 5.95429C1.91444 4.97753 2.07853 4.45009 2.21528 4.09846C2.395 3.63352 2.61379 3.29752 2.96152 2.9498C3.31315 2.59816 3.64524 2.38328 4.11018 2.20356C4.46181 2.06681 4.99316 1.90272 5.96601 1.85974C7.017 1.81285 7.33346 1.80113 10.0059 1.80113ZM10.0059 0C7.29049 0 6.95058 0.011721 5.88396 0.0586052C4.82125 0.105489 4.09064 0.277398 3.45771 0.52354C2.79742 0.781403 2.23872 1.12131 1.68392 1.68002C1.12522 2.23481 0.785309 2.79351 0.527446 3.44989C0.281304 4.08674 0.109396 4.81344 0.0625115 5.87615C0.0156273 6.94667 0.00390625 7.28658 0.00390625 10.002C0.00390625 12.7173 0.0156273 13.0572 0.0625115 14.1239C0.109396 15.1866 0.281304 15.9172 0.527446 16.5501C0.785309 17.2104 1.12522 17.7691 1.68392 18.3239C2.23872 18.8787 2.79742 19.2225 3.4538 19.4765C4.09064 19.7226 4.81735 19.8945 5.88005 19.9414C6.94667 19.9883 7.28658 20 10.002 20C12.7173 20 13.0572 19.9883 14.1239 19.9414C15.1866 19.8945 15.9172 19.7226 16.5501 19.4765C17.2065 19.2225 17.7652 18.8787 18.32 18.3239C18.8748 17.7691 19.2186 17.2104 19.4726 16.554C19.7187 15.9172 19.8906 15.1905 19.9375 14.1278C19.9844 13.0611 19.9961 12.7212 19.9961 10.0059C19.9961 7.29049 19.9844 6.95058 19.9375 5.88396C19.8906 4.82125 19.7187 4.09064 19.4726 3.45771C19.2264 2.79351 18.8865 2.23481 18.3278 1.68002C17.773 1.12522 17.2143 0.781403 16.5579 0.527447C15.9211 0.281305 15.1944 0.109396 14.1317 0.0625122C13.0611 0.011721 12.7212 0 10.0059 0Z" fill="#E52B28"/>
<path d="M10.0059 4.86423C7.16937 4.86423 4.86814 7.16546 4.86814 10.002C4.86814 12.8384 7.16937 15.1397 10.0059 15.1397C12.8424 15.1397 15.1436 12.8384 15.1436 10.002C15.1436 7.16546 12.8424 4.86423 10.0059 4.86423ZM10.0059 13.3346C8.16566 13.3346 6.67318 11.8422 6.67318 10.002C6.67318 8.16175 8.16566 6.66927 10.0059 6.66927C11.8461 6.66927 13.3385 8.16175 13.3385 10.002C13.3385 11.8422 11.8461 13.3346 10.0059 13.3346Z" fill="#E52B28"/>
<path d="M16.5462 4.66164C16.5462 5.32584 16.007 5.8611 15.3467 5.8611C14.6825 5.8611 14.1472 5.32193 14.1472 4.66164C14.1472 3.99745 14.6864 3.46219 15.3467 3.46219C16.007 3.46219 16.5462 4.00136 16.5462 4.66164Z" fill="#E52B28"/>
</svg>
