<svg width="16" height="16" viewBox="0 0 16 16" fill="none" xmlns="http://www.w3.org/2000/svg">
<path d="M3.61232 15.9907H0.256378V5.33073H3.61232V15.9907ZM1.93203 3.85349C1.55135 3.85135 1.17984 3.73649 0.864385 3.52341C0.548929 3.31032 0.303661 3.00857 0.159538 2.65622C0.0154139 2.30388 -0.0211068 1.91674 0.0545844 1.54366C0.130275 1.17058 0.314786 0.828285 0.584831 0.559969C0.854875 0.291653 1.19835 0.109344 1.57191 0.0360503C1.94547 -0.0372439 2.33236 0.00176203 2.68377 0.148145C3.03518 0.294528 3.33536 0.541727 3.54641 0.858545C3.75746 1.17536 3.86994 1.5476 3.86964 1.92828C3.87323 2.18315 3.82547 2.43613 3.72921 2.67214C3.63295 2.90816 3.49016 3.12238 3.30935 3.30203C3.12853 3.48169 2.9134 3.6231 2.67677 3.71785C2.44014 3.81259 2.18686 3.85872 1.93203 3.85349ZM15.982 16H12.6276V10.1763C12.6276 8.45881 11.8976 7.92868 10.9551 7.92868C9.95994 7.92868 8.98339 8.67892 8.98339 10.2197V16H5.62744V5.33848H8.85473V6.81572H8.89813C9.2221 6.16003 10.3568 5.03931 12.0882 5.03931C13.9607 5.03931 15.9836 6.15073 15.9836 9.40592L15.982 16Z" fill="#E52B28"/>
</svg>
