<?xml version="1.0" encoding="UTF-8"?>
<svg xmlns="http://www.w3.org/2000/svg" width="57" height="57" viewBox="0 0 57 57" fill="none">
  <g clip-path="url(#clip0_4570_5414)">
    <path d="M46.6361 0H10.3639C4.63996 0 0 4.63996 0 10.3639V46.6361C0 52.36 4.63996 57 10.3639 57H46.6361C52.36 57 57 52.36 57 46.6361V10.3633C57 4.63996 52.36 0 46.6361 0ZM10.0397 26.1376C10.0397 26.6379 9.43461 26.8885 9.08079 26.5347L7.48593 24.9399C7.22338 24.6773 7.07581 24.3211 7.07581 23.9495V19.3451C7.07581 18.9344 7.40889 18.6013 7.8196 18.6013H10.0397V26.1376ZM10.0397 14.9956C10.0397 15.4063 9.70664 15.7388 9.29652 15.7388H7.81901C7.40829 15.7388 7.07581 15.4057 7.07581 14.9956V13.5181C7.07581 13.1073 7.40889 12.7749 7.81901 12.7749H9.29652C9.70723 12.7749 10.0397 13.1079 10.0397 13.5181V14.9956ZM19.8038 35.7092C17.8178 35.6286 16.6556 35.2184 15.6374 34.5102V34.0758V32.117C15.6374 31.8314 15.9717 31.6814 16.188 31.8681C16.1928 31.8723 16.1987 31.877 16.2236 31.8983C16.2947 31.9588 16.354 32.0038 16.3931 32.0323C17.9441 33.2401 19.7997 33.2935 21.1427 33.0475C23.4819 32.619 25.5438 30.7468 25.9598 28.2149C26.6622 23.9424 23.1524 21.164 20.3035 21.0953C15.7198 20.985 14.1623 24.6364 14.1552 27.998V44.2228H11.5006V27.8475C11.2648 22.7203 14.9333 18.4917 20.2809 18.6025C24.0159 18.6796 28.3672 21.7318 28.5184 26.7825C28.6748 32.0258 24.5386 35.9012 19.8038 35.7092ZM49.9242 35.6635H47.3603C47.2122 35.6635 47.1381 35.5491 47.1357 35.4229V24.2808C47.093 22.5538 45.9877 21.1539 44.2121 21.1332C42.7553 21.116 41.3863 22.1603 41.3638 24.2808V35.6635H38.5095V24.2814C38.5285 22.3754 37.1416 21.2102 35.6564 21.2002C34.1208 21.1895 32.8027 22.3434 32.8027 24.2814V35.6635H29.9491V24.2814C29.9473 22.5467 30.2466 21.436 31.458 20.1245C32.4187 19.0849 33.7575 18.5587 35.2647 18.5587C36.4873 18.5587 37.464 18.999 38.2286 19.5188C38.8503 19.9431 39.2705 20.4309 39.6853 21.0763C39.7689 21.2067 39.8157 21.2713 39.8868 21.2707C39.9663 21.2701 39.9971 21.2174 40.0795 21.0864C40.4718 20.4653 40.9299 19.9295 41.5552 19.5046C42.3191 18.9842 43.3456 18.5427 44.5902 18.5427C46.1187 18.5427 47.374 19.127 48.3684 20.112C49.3618 21.0976 49.9236 22.4874 49.9236 24.2814V35.6635H49.9242Z" fill="#E52B28"></path>
  </g>
  <defs>
    <clipPath id="clip0_4570_5414">
      <rect width="57" height="57" fill="white"></rect>
    </clipPath>
  </defs>
</svg>
